<?xml version="1.0" standalone="no"?>
<!DOCTYPE svg PUBLIC "-//W3C//DTD SVG 20010904//EN"
 "http://www.w3.org/TR/2001/REC-SVG-20010904/DTD/svg10.dtd">
<svg version="1.0" xmlns="http://www.w3.org/2000/svg"
 width="512.000000pt" height="512.000000pt" viewBox="0 0 512.000000 512.000000"
 preserveAspectRatio="xMidYMid meet">
<metadata>
Created by potrace 1.11, written by Peter Selinger 2001-2013
</metadata>
<g transform="translate(0.000000,512.000000) scale(0.100000,-0.100000)"
fill="#000000" stroke="none">
<path d="M2816 5088 c-3 -18 -7 -49 -10 -68 -3 -19 -8 -52 -11 -72 -4 -27 -3
-38 6 -38 7 0 10 -2 7 -5 -3 -3 -22 4 -42 16 -23 13 -36 17 -36 9 0 -14 51
-56 62 -53 4 2 4 -7 -1 -20 -4 -12 -7 -35 -5 -52 6 -51 3 -109 -6 -120 -4 -5
-11 -27 -15 -47 -4 -21 -11 -38 -15 -38 -12 0 -20 -28 -13 -45 4 -11 14 -14
37 -11 17 3 81 8 141 11 323 15 464 26 511 40 44 13 204 8 204 -6 0 -5 10 -9
23 -9 28 0 43 -9 133 -84 31 -25 40 -28 81 -22 26 3 56 12 68 20 12 8 41 20
65 26 23 6 54 16 69 23 14 6 33 12 41 13 40 7 127 32 145 41 11 6 41 14 67 17
46 7 47 6 71 -31 13 -21 30 -69 36 -108 7 -38 23 -108 36 -155 13 -47 28 -107
33 -135 6 -27 24 -80 41 -117 26 -57 35 -67 62 -73 20 -5 34 -3 39 5 4 6 11
10 16 8 5 -1 13 11 17 27 5 17 13 37 18 45 25 42 23 64 -5 41 -18 -15 -56 5
-56 31 0 20 -28 136 -39 163 -5 11 -14 47 -21 80 -6 33 -16 76 -21 96 -5 20
-9 48 -9 63 0 15 -5 37 -12 49 -7 12 -13 35 -14 51 -1 15 -6 38 -12 50 -6 11
-13 37 -17 57 -3 21 -12 42 -20 49 -8 7 -15 22 -15 34 0 12 -7 31 -15 42 -28
37 -18 44 58 44 19 0 27 5 27 17 0 15 2 16 10 3 6 -10 4 -20 -6 -32 -19 -20
-11 -73 12 -82 10 -4 13 -13 9 -25 -7 -23 10 -71 26 -71 6 0 9 9 6 20 -6 24 8
27 17 4 9 -23 7 -46 -3 -40 -17 11 -30 -19 -22 -50 8 -30 41 -47 41 -20 0 8 4
18 10 21 5 3 7 0 4 -9 -5 -12 1 -13 38 -4 49 11 193 5 211 -10 7 -5 23 -12 37
-15 14 -4 50 -30 81 -59 51 -48 64 -70 117 -188 8 -19 11 67 11 353 l1 377
-1150 0 -1149 0 -5 -32z m1741 -198 c1 -11 -2 -18 -8 -15 -11 7 -12 35 -1 35
4 0 8 -9 9 -20z"/>
<path d="M1970 5034 c0 -3 7 -12 15 -21 20 -19 32 -9 15 12 -12 15 -30 20 -30
9z"/>
<path d="M1885 5015 c-26 -11 -27 -13 -8 -14 27 -1 53 9 53 20 0 12 -9 11 -45
-6z"/>
<path d="M1799 4980 c-19 -15 -21 -19 -7 -20 27 0 48 11 48 26 0 19 -14 17
-41 -6z"/>
<path d="M2218 4929 c-36 -36 -58 -68 -58 -81 0 -13 -6 -35 -14 -50 -8 -14
-21 -57 -30 -95 -10 -37 -20 -75 -23 -83 -3 -8 -5 -19 -4 -24 1 -4 -3 -14 -9
-21 -6 -7 -20 -46 -31 -86 -11 -41 -28 -96 -38 -124 -20 -59 -18 -81 12 -118
31 -39 89 -46 143 -18 24 13 73 24 125 29 97 10 126 23 135 56 13 54 4 61 -71
58 -37 -1 -82 -9 -99 -16 -57 -25 -117 -35 -142 -24 -21 10 -22 15 -17 62 3
28 9 56 13 61 5 6 12 28 16 50 4 22 13 49 20 60 8 11 14 32 14 47 0 15 4 29 9
32 5 3 12 27 16 53 4 26 13 56 21 67 8 11 14 33 14 48 0 15 5 30 10 33 6 3 10
25 10 48 0 37 4 45 30 60 17 10 30 22 30 28 0 22 -29 4 -82 -52z"/>
<path d="M2336 4981 c15 -15 66 -17 71 -3 3 8 -8 12 -38 12 -27 0 -39 -4 -33
-9z"/>
<path d="M2430 4971 c0 -11 59 -20 65 -10 3 4 -2 10 -11 13 -23 9 -54 7 -54
-3z"/>
<path d="M2540 4958 c0 -4 14 -8 30 -8 17 0 30 2 30 4 0 2 -13 6 -30 8 -16 3
-30 1 -30 -4z"/>
<path d="M1708 4946 c-28 -10 -35 -21 -20 -30 9 -5 59 30 52 37 -3 2 -17 -1
-32 -7z"/>
<path d="M1955 4941 c-43 -25 -122 -53 -164 -58 -20 -3 -40 -11 -44 -19 -4 -8
-18 -14 -30 -14 -12 -1 -33 -7 -47 -15 -14 -8 -42 -14 -63 -15 -45 0 -52 -13
-43 -75 7 -44 28 -61 39 -32 3 8 49 26 104 41 54 15 118 37 143 48 106 48 109
50 116 84 3 18 12 38 20 45 15 12 19 29 7 28 -5 0 -21 -8 -38 -18z"/>
<path d="M2630 4951 c0 -11 59 -20 65 -10 3 3 -5 9 -18 13 -31 8 -47 7 -47 -3z"/>
<path d="M1625 4913 c-30 -7 -43 -23 -18 -23 28 0 53 10 53 21 0 9 -3 10 -35
2z"/>
<path d="M1511 4889 c-13 -5 -22 -12 -19 -15 8 -8 58 7 58 17 0 11 -8 11 -39
-2z"/>
<path d="M2360 4885 c-30 -11 -38 -21 -57 -73 -11 -33 -19 -63 -15 -66 10 -11
22 -6 22 8 0 22 66 27 210 14 128 -11 138 -10 175 8 32 15 40 25 40 46 0 14 3
30 8 34 17 18 4 26 -35 22 -24 -3 -79 -1 -123 3 -158 16 -190 17 -225 4z"/>
<path d="M1450 4829 c-36 -13 -57 -71 -48 -134 3 -27 11 -90 17 -140 6 -49 13
-105 17 -124 7 -35 6 -36 -53 -14 -7 3 -13 1 -13 -4 0 -13 68 -36 81 -27 8 5
10 -1 7 -21 -3 -15 0 -43 8 -61 17 -42 17 -44 -1 -44 -14 0 -35 -37 -35 -60 0
-16 27 1 37 23 10 21 10 21 26 -9 25 -49 73 -94 99 -94 13 0 48 13 78 29 30
16 96 50 146 75 83 42 94 51 110 89 10 23 20 45 22 50 2 4 -6 7 -17 7 -12 0
-21 -3 -21 -8 0 -4 -15 -13 -32 -20 -48 -20 -88 -39 -133 -67 -82 -49 -85 -50
-113 -35 -14 8 -29 28 -33 44 -4 15 -15 36 -23 45 -16 18 -18 27 -31 136 -4
33 -13 69 -20 81 -7 11 -11 32 -8 47 3 15 2 35 -3 44 -4 10 -8 29 -10 43 -9
93 -18 151 -23 154 -3 2 -17 -1 -31 -5z"/>
<path d="M1030 4790 c-8 -5 -12 -11 -10 -14 8 -7 60 6 60 15 0 12 -31 11 -50
-1z"/>
<path d="M1110 4782 c0 -10 33 -22 60 -22 13 1 13 2 0 9 -27 16 -60 22 -60 13z"/>
<path d="M943 4760 c-19 -8 -33 -30 -18 -30 12 0 55 24 55 32 0 10 -8 9 -37
-2z"/>
<path d="M1210 4743 c1 -10 39 -60 40 -51 0 17 -21 58 -30 58 -5 0 -10 -3 -10
-7z"/>
<path d="M2350 4735 c7 -8 23 -15 36 -15 15 0 24 6 24 15 0 11 -11 15 -36 15
-31 0 -35 -2 -24 -15z"/>
<path d="M2440 4735 c0 -10 10 -15 29 -15 16 0 31 6 35 15 4 12 -3 15 -29 15
-24 0 -35 -5 -35 -15z"/>
<path d="M860 4710 c-14 -10 -22 -21 -19 -25 10 -9 59 17 59 32 0 18 -10 16
-40 -7z"/>
<path d="M2540 4721 c0 -6 5 -13 10 -16 6 -3 10 -16 10 -28 1 -20 2 -20 11 -5
7 12 6 24 -1 38 -11 21 -30 27 -30 11z"/>
<path d="M1032 4690 c-18 -4 -43 -17 -55 -28 -12 -11 -32 -23 -44 -26 -12 -4
-24 -15 -27 -24 -7 -26 8 -105 20 -109 7 -2 10 5 7 21 -4 20 1 27 31 41 29 14
41 15 71 5 50 -17 68 -56 63 -140 -3 -60 -7 -72 -41 -113 -30 -36 -36 -52 -31
-72 3 -14 10 -28 15 -31 5 -3 9 -17 9 -32 0 -15 7 -38 16 -50 l15 -22 42 22
c23 11 46 26 52 33 16 20 77 37 89 25 12 -12 -29 -99 -50 -107 -23 -9 -16 -23
12 -23 31 0 80 46 90 85 4 15 15 36 24 45 22 22 46 118 33 131 -14 14 -110 -8
-133 -31 -11 -11 -27 -20 -35 -20 -8 0 -22 -11 -30 -24 -18 -27 -58 -38 -92
-25 -35 13 -28 44 19 89 46 45 87 121 88 162 0 15 4 29 9 32 10 7 3 44 -12 63
-5 7 -7 20 -3 28 6 18 -13 65 -27 65 -5 0 -20 9 -34 20 -27 21 -39 23 -91 10z"/>
<path d="M1790 4691 c0 -4 13 -8 30 -7 39 1 39 16 0 16 -16 0 -30 -4 -30 -9z"/>
<path d="M777 4683 c-4 -3 -7 -14 -7 -24 0 -10 -9 -21 -20 -24 -22 -7 -70 -71
-70 -94 0 -8 -17 -35 -38 -60 -41 -49 -72 -105 -72 -128 0 -24 40 -74 67 -84
39 -15 73 0 89 37 23 56 47 45 87 -38 19 -40 40 -91 47 -113 6 -22 20 -58 31
-80 10 -23 22 -68 27 -102 10 -70 47 -129 88 -139 39 -10 115 1 164 24 25 11
58 24 72 27 32 8 86 72 126 145 15 29 35 66 44 83 26 49 22 66 -7 35 -14 -15
-25 -36 -25 -48 0 -11 -4 -20 -10 -20 -5 0 -19 -18 -30 -40 -12 -23 -28 -40
-38 -40 -9 0 -30 -7 -46 -15 -15 -8 -33 -15 -38 -15 -6 0 -25 -7 -44 -16 -76
-36 -170 12 -157 79 4 18 0 34 -11 46 -9 10 -13 21 -10 24 4 4 0 26 -9 49 -8
24 -18 58 -22 76 -4 18 -13 36 -21 39 -8 3 -14 14 -14 25 0 11 -8 37 -19 57
-38 74 -56 117 -61 145 -3 16 -10 31 -16 33 -13 4 -74 -88 -74 -111 0 -15 -32
-46 -48 -46 -18 0 -52 42 -52 65 0 12 13 35 30 51 16 16 30 34 30 41 0 7 14
22 30 35 17 12 30 30 30 40 0 10 7 34 14 53 12 28 12 35 2 35 -7 0 -16 -3 -19
-7z"/>
<path d="M1687 4683 c-25 -24 18 -32 49 -8 18 14 17 14 -12 15 -17 0 -34 -3
-37 -7z"/>
<path d="M1593 4668 c2 -7 16 -13 32 -13 16 0 30 6 33 13 2 8 -8 12 -33 12
-25 0 -35 -4 -32 -12z"/>
<path d="M1252 4628 c3 -35 28 -52 28 -20 0 28 -10 52 -22 52 -5 0 -8 -14 -6
-32z"/>
<path d="M2238 4638 c-10 -10 -18 -30 -18 -45 0 -16 -7 -37 -15 -47 -17 -22
-20 -66 -5 -66 5 0 16 16 24 35 l15 35 120 0 c113 0 121 1 150 25 20 18 29 34
28 51 l-2 26 -139 2 c-124 3 -141 1 -158 -16z"/>
<path d="M1828 4633 c-16 -8 -28 -19 -28 -25 0 -6 -9 -8 -21 -5 -11 3 -39 -1
-62 -8 -23 -7 -55 -17 -71 -22 -33 -9 -49 -47 -39 -94 5 -25 7 -27 27 -16 11
7 28 17 36 23 8 6 35 14 59 18 61 9 78 21 86 58 4 17 16 40 26 52 16 16 26 39
17 35 -2 -1 -15 -8 -30 -16z"/>
<path d="M4590 4604 c0 -20 18 -54 29 -54 5 0 4 16 -2 35 -11 36 -27 47 -27
19z"/>
<path d="M0 4390 c0 -187 5 -216 31 -167 15 27 30 38 47 32 18 -7 15 57 -8
147 -10 43 -22 100 -26 128 -5 40 -10 50 -25 50 -18 0 -19 -11 -19 -190z"/>
<path d="M1266 4533 c10 -40 14 -41 14 -5 0 18 -5 32 -10 32 -6 0 -8 -11 -4
-27z"/>
<path d="M4614 4488 c7 -34 13 -44 21 -36 9 8 -7 68 -17 68 -6 0 -8 -13 -4
-32z"/>
<path d="M940 4455 c0 -12 24 -55 32 -55 10 0 10 3 -2 34 -8 22 -30 37 -30 21z"/>
<path d="M1256 4444 c-15 -40 12 -61 62 -47 33 8 26 23 -8 17 -27 -6 -30 -4
-30 20 0 29 -14 35 -24 10z"/>
<path d="M1881 4449 c-13 -5 -22 -12 -19 -15 8 -8 58 7 58 17 0 11 -8 11 -39
-2z"/>
<path d="M1954 4444 c3 -9 6 -25 6 -37 0 -16 3 -18 11 -10 14 14 4 63 -12 63
-6 0 -8 -7 -5 -16z"/>
<path d="M2280 4450 c-24 -8 -23 -8 8 -9 17 -1 32 4 32 9 0 11 -5 11 -40 0z"/>
<path d="M2360 4450 c0 -5 16 -10 36 -10 21 0 33 4 29 10 -3 6 -19 10 -36 10
-16 0 -29 -4 -29 -10z"/>
<path d="M2180 4435 c0 -16 9 -19 34 -9 25 9 19 24 -9 24 -16 0 -25 -6 -25
-15z"/>
<path d="M2450 4421 c0 -11 -3 -27 -7 -36 -5 -15 -3 -16 15 -6 26 14 31 61 7
61 -8 0 -15 -9 -15 -19z"/>
<path d="M1620 4417 c0 -8 11 -24 25 -37 29 -27 31 -21 10 20 -16 31 -35 40
-35 17z"/>
<path d="M4636 4422 c-11 -19 3 -72 20 -72 17 0 17 15 0 55 -8 20 -15 25 -20
17z"/>
<path d="M1795 4403 c-16 -9 -25 -18 -19 -20 16 -5 64 15 64 27 0 14 -10 12
-45 -7z"/>
<path d="M1703 4370 c-25 -10 -31 -30 -9 -30 25 0 46 12 46 26 0 16 -6 16 -37
4z"/>
<path d="M980 4357 c0 -17 27 -54 34 -46 7 7 -16 59 -26 59 -5 0 -8 -6 -8 -13z"/>
<path d="M4665 4317 c-4 -10 -2 -30 5 -45 16 -34 24 -14 12 30 -8 27 -11 30
-17 15z"/>
<path d="M4273 4313 c-21 -4 -34 -33 -15 -33 15 0 62 25 62 33 0 7 -9 7 -47 0z"/>
<path d="M4348 4284 c-3 -5 3 -22 13 -39 16 -25 19 -27 19 -9 0 24 -25 61 -32
48z"/>
<path d="M4182 4255 c-17 -14 -32 -25 -35 -25 -3 0 -18 -5 -34 -11 -22 -8 -24
-12 -13 -19 29 -18 55 -10 93 30 20 22 37 42 37 45 0 12 -20 3 -48 -20z"/>
<path d="M5105 4220 c-4 -22 -6 -43 -5 -46 1 -4 -2 -10 -7 -13 -4 -3 -17 -23
-28 -43 -10 -20 -29 -42 -41 -48 -12 -7 -28 -23 -35 -36 -7 -13 -18 -24 -24
-24 -7 0 -15 -18 -19 -40 -10 -65 -37 -134 -57 -148 -11 -7 -19 -19 -19 -26 0
-7 -18 -25 -40 -40 -22 -14 -40 -30 -40 -34 0 -4 -17 -14 -37 -21 -21 -8 -46
-20 -55 -28 -9 -8 -59 -25 -110 -38 -51 -13 -111 -33 -132 -44 -21 -11 -43
-18 -47 -15 -5 3 -9 0 -9 -5 0 -6 -15 -11 -33 -11 -20 0 -39 -8 -50 -20 -9
-11 -29 -20 -46 -20 -16 0 -46 -6 -67 -14 -22 -7 -49 -12 -61 -10 -26 4 -93
-22 -93 -37 0 -6 -6 -9 -13 -6 -14 5 -96 -8 -127 -20 -8 -3 -25 -5 -37 -4 -11
1 -24 -3 -28 -8 -4 -7 -22 -9 -46 -5 -26 4 -39 3 -39 -5 0 -6 -3 -10 -7 -10
-28 5 -93 -3 -93 -10 0 -6 168 -9 413 -10 456 0 449 0 712 74 72 20 161 43
199 50 39 8 85 20 103 26 l33 11 0 359 c0 197 -2 359 -4 359 -2 0 -7 -18 -11
-40z"/>
<path d="M4680 4198 c0 -27 15 -54 23 -42 8 13 -4 64 -14 64 -5 0 -9 -10 -9
-22z"/>
<path d="M4002 4182 c-15 -15 -39 -35 -54 -45 -16 -10 -28 -24 -28 -31 0 -7
-7 -19 -15 -26 -19 -16 -19 -82 0 -180 32 -165 50 -200 108 -200 29 0 43 14
53 55 4 17 16 36 26 43 18 13 25 42 9 42 -5 0 -14 -7 -21 -15 -28 -33 -48 -8
-55 68 -2 15 -8 33 -14 41 -16 20 -23 226 -8 226 13 1 57 35 57 44 0 16 -35 3
-58 -22z"/>
<path d="M4265 4196 c-15 -10 -19 -27 -20 -73 -1 -33 -5 -65 -9 -72 -16 -25
-56 -11 -101 35 -62 66 -78 57 -70 -38 9 -117 19 -171 33 -176 8 -2 12 7 12
27 0 28 2 30 30 26 35 -4 77 25 91 64 l10 25 19 -42 c11 -23 22 -59 26 -80 9
-53 44 -112 71 -118 44 -12 71 3 84 46 7 22 18 45 26 51 7 6 13 18 13 26 0 13
-3 13 -25 -1 -33 -21 -45 -20 -45 5 0 11 -9 34 -21 50 -11 16 -18 36 -15 44 3
8 0 29 -5 47 -6 18 -12 43 -13 56 -2 13 -12 33 -24 45 -11 12 -22 31 -24 41
-4 25 -19 30 -43 12z"/>
<path d="M4386 4192 c-7 -11 16 -55 32 -60 9 -3 11 4 6 25 -4 15 -9 31 -11 36
-6 9 -21 9 -27 -1z"/>
<path d="M2096 4177 c-11 -8 -15 -17 -9 -20 13 -8 62 5 65 18 5 16 -35 17 -56
2z"/>
<path d="M2182 4168 c3 -7 20 -14 39 -16 l34 -2 -25 15 c-31 18 -53 19 -48 3z"/>
<path d="M2004 4134 c-18 -15 -18 -15 6 -10 14 3 28 6 33 6 4 0 7 5 7 10 0 15
-24 12 -46 -6z"/>
<path d="M3770 4141 c0 -5 16 -11 35 -13 36 -4 47 5 19 16 -23 9 -54 7 -54 -3z"/>
<path d="M3698 4128 c-28 -10 -34 -19 -22 -31 8 -8 64 24 64 35 0 10 -7 9 -42
-4z"/>
<path d="M2252 4100 c-14 -30 -44 -40 -57 -19 -11 16 -118 3 -162 -21 -67 -35
-131 -118 -103 -135 6 -3 36 6 68 22 48 23 68 28 123 25 58 -2 69 1 92 22 15
14 27 34 27 44 0 10 9 27 20 37 19 18 28 55 12 55 -4 0 -13 -13 -20 -30z"/>
<path d="M1921 4090 c-13 -11 -18 -20 -13 -20 18 0 62 23 62 32 0 14 -24 8
-49 -12z"/>
<path d="M4425 4068 c8 -36 12 -44 20 -36 8 8 -7 68 -17 68 -6 0 -7 -14 -3
-32z"/>
<path d="M1088 4085 c-7 -8 3 -54 13 -61 11 -7 12 36 1 54 -5 7 -11 10 -14 7z"/>
<path d="M3625 4080 c-4 -6 -24 -22 -45 -35 -21 -13 -41 -33 -45 -45 -3 -11
-13 -20 -20 -20 -8 0 -22 -11 -31 -25 -16 -24 -16 -28 1 -68 10 -23 26 -48 34
-55 14 -12 14 -14 -1 -26 -24 -17 -23 -26 3 -26 11 0 29 -5 40 -10 18 -10 18
-12 3 -35 -8 -13 -22 -26 -31 -29 -23 -9 -130 14 -144 30 -20 24 -45 15 -80
-27 -19 -22 -40 -48 -48 -56 -21 -23 -76 -10 -112 26 -17 17 -34 31 -38 31 -8
0 -41 71 -41 89 0 6 9 24 21 40 11 15 21 35 23 43 1 9 16 28 34 43 31 26 41
45 23 45 -5 0 -31 -20 -57 -45 -27 -25 -52 -45 -56 -45 -5 0 -8 -6 -8 -14 0
-8 -11 -27 -24 -43 -29 -35 -49 -105 -41 -142 11 -50 125 -151 171 -151 22 0
74 29 112 61 37 32 64 36 106 14 66 -35 166 -1 166 56 0 22 7 32 25 41 22 10
29 8 53 -15 16 -15 34 -27 40 -27 24 0 72 44 72 65 0 11 5 26 11 32 7 7 2 12
-19 16 -23 5 -33 16 -50 56 -11 28 -25 51 -31 51 -5 0 -15 16 -21 36 -7 22
-21 39 -36 44 -14 6 -24 18 -24 29 0 22 31 44 52 36 14 -5 51 49 40 59 -8 9
-20 7 -27 -4z"/>
<path d="M3805 4060 c-13 -20 -29 -30 -45 -30 -30 -1 -66 -25 -51 -35 6 -3 11
-21 11 -39 0 -18 7 -41 16 -52 15 -19 15 -18 11 3 -4 17 2 28 23 43 17 12 30
33 34 53 4 19 15 42 26 52 23 21 26 35 8 35 -7 0 -22 -14 -33 -30z"/>
<path d="M1134 4046 c-22 -17 -11 -35 13 -20 19 12 29 34 16 34 -5 0 -18 -6
-29 -14z"/>
<path d="M1842 4024 c-35 -37 -82 -131 -82 -164 0 -24 46 -100 60 -100 5 0 25
-11 45 -25 21 -13 54 -32 76 -42 21 -9 39 -20 39 -24 0 -4 25 -21 55 -38 70
-39 89 -69 82 -122 -3 -22 -14 -47 -24 -54 -17 -14 -17 -14 2 -14 11 0 28 3
37 7 23 9 68 71 68 94 0 10 9 27 20 38 26 26 25 36 -5 56 -14 9 -25 24 -25 33
0 22 -19 41 -43 41 -10 0 -21 8 -24 19 -5 19 -42 41 -68 41 -8 0 -15 6 -15 13
0 13 -40 37 -62 37 -6 0 -26 11 -44 25 -18 14 -37 25 -43 25 -13 0 -22 16 -32
57 -6 27 -3 42 12 67 19 31 25 67 12 65 -5 0 -23 -16 -41 -35z"/>
<path d="M2460 4010 c0 -5 7 -10 15 -10 9 0 18 -7 21 -15 4 -8 10 -12 16 -9
12 7 -20 44 -39 44 -7 0 -13 -4 -13 -10z"/>
<path d="M4440 3992 c0 -21 26 -60 34 -51 3 3 3 20 0 37 -7 34 -34 45 -34 14z"/>
<path d="M2862 3970 c-9 -16 -26 -31 -38 -34 -28 -7 -54 -63 -54 -113 0 -22
-6 -48 -14 -59 -14 -18 -15 -18 -24 5 -5 15 -11 20 -15 13 -8 -12 12 -62 25
-62 4 0 17 -9 29 -21 16 -16 23 -18 35 -8 8 6 14 17 14 24 0 7 7 18 15 25 9 7
15 29 15 51 0 21 5 41 10 44 14 9 13 51 -2 76 -11 18 -10 23 15 44 28 25 35
45 17 45 -6 0 -19 -13 -28 -30z"/>
<path d="M3203 3988 c4 -14 56 -12 72 3 5 5 -8 9 -34 9 -30 0 -41 -4 -38 -12z"/>
<path d="M2422 3970 c-7 -11 -19 -20 -28 -20 -8 0 -22 -17 -31 -37 -23 -57
-14 -244 15 -298 33 -61 56 -84 103 -100 40 -15 44 -14 82 9 l41 23 55 -25
c104 -46 166 -29 203 56 12 26 24 49 29 52 4 3 11 18 15 34 10 42 -18 29 -32
-15 -10 -31 -16 -34 -53 -37 -29 -2 -52 3 -75 17 -18 12 -41 21 -49 21 -9 0
-21 9 -27 20 -15 28 -30 25 -43 -10 -6 -17 -20 -33 -30 -36 -35 -11 -86 6
-104 34 -10 15 -23 31 -30 35 -8 5 -11 12 -9 16 3 5 1 23 -4 42 -6 19 -11 80
-11 137 0 56 -1 102 -2 102 -1 0 -8 -9 -15 -20z"/>
<path d="M2607 3930 c-31 -33 -57 -67 -57 -75 0 -8 -9 -15 -20 -15 -15 0 -20
-7 -20 -29 0 -16 6 -34 14 -40 7 -6 11 -21 9 -34 -2 -12 1 -29 6 -36 8 -12 13
-11 30 10 22 26 31 46 54 124 8 28 11 54 6 59 -4 5 2 22 16 38 21 24 33 58 22
58 -1 0 -28 -27 -60 -60z"/>
<path d="M2700 3982 c0 -15 25 -62 33 -62 7 0 0 45 -10 63 -6 9 -23 9 -23 -1z"/>
<path d="M2934 3970 c3 -14 6 -33 6 -42 0 -10 5 -18 10 -18 16 0 12 44 -6 66
-15 18 -15 18 -10 -6z"/>
<path d="M3300 3962 c0 -10 33 -42 43 -42 12 0 7 18 -9 34 -17 17 -34 21 -34
8z"/>
<path d="M2507 3943 c-7 -13 5 -73 14 -73 5 0 9 18 9 40 0 36 -12 52 -23 33z"/>
<path d="M4654 3936 c-24 -18 -10 -34 16 -18 11 7 27 12 35 12 8 0 15 5 15 10
0 15 -43 12 -66 -4z"/>
<path d="M53 3922 c-3 -7 0 -36 6 -65 7 -29 16 -74 22 -102 20 -106 17 -101
46 -58 47 69 53 94 42 164 -5 34 -12 66 -15 71 -9 13 -96 5 -101 -10z"/>
<path d="M1980 3910 c0 -11 33 -30 52 -30 7 0 2 9 -12 20 -28 22 -40 25 -40
10z"/>
<path d="M4736 3889 c-8 -44 -8 -55 3 -43 14 14 24 74 13 74 -5 0 -12 -14 -16
-31z"/>
<path d="M3220 3893 c-21 -6 -61 -59 -61 -80 1 -38 14 -83 27 -94 17 -14 42
-5 51 18 3 10 11 25 18 33 20 25 24 58 9 71 -8 6 -14 22 -14 35 0 24 -2 26
-30 17z"/>
<path d="M4604 3885 c-32 -13 -43 -42 -36 -93 8 -56 116 -60 141 -6 16 36 14
42 -20 72 -47 40 -51 41 -85 27z"/>
<path d="M2717 3884 c-11 -11 -8 -64 3 -64 14 0 24 50 13 61 -5 5 -12 6 -16 3z"/>
<path d="M3350 3872 c0 -10 5 -23 12 -30 21 -21 27 -13 12 18 -18 34 -24 38
-24 12z"/>
<path d="M2930 3849 c0 -17 4 -28 10 -24 6 3 10 17 10 31 0 13 -4 24 -10 24
-5 0 -10 -14 -10 -31z"/>
<path d="M2060 3860 c0 -5 14 -16 30 -25 34 -18 40 -8 10 18 -22 19 -40 22
-40 7z"/>
<path d="M3747 3864 c-8 -13 4 -64 14 -64 11 0 11 41 0 59 -5 7 -11 9 -14 5z"/>
<path d="M2182 3793 c15 -15 31 -23 35 -19 9 8 -32 46 -50 46 -7 0 1 -12 15
-27z"/>
<path d="M3435 3801 c19 -13 33 -17 39 -11 13 13 8 16 -34 25 l-35 6 30 -20z"/>
<path d="M2917 3767 c-4 -10 -7 -28 -7 -40 1 -20 2 -20 11 -4 6 10 9 28 7 40
-3 20 -4 20 -11 4z"/>
<path d="M1610 3761 c0 -5 16 -9 35 -9 19 0 32 4 29 9 -3 5 -18 9 -35 9 -16 0
-29 -4 -29 -9z"/>
<path d="M2230 3744 c0 -16 23 -44 36 -44 13 0 12 4 -3 25 -17 23 -33 32 -33
19z"/>
<path d="M1569 3713 c-70 -43 -90 -159 -43 -249 32 -60 72 -103 146 -154 66
-47 113 -58 259 -67 146 -8 218 7 265 56 21 22 33 43 30 54 -4 16 8 50 35 99
11 22 12 38 1 38 -11 0 -32 -45 -32 -68 0 -19 -79 -52 -140 -59 -19 -2 -39 -8
-44 -13 -5 -5 -17 -5 -29 1 -10 6 -33 9 -51 6 -31 -5 -94 6 -151 25 -16 6 -38
10 -48 10 -10 -1 -22 10 -27 22 -8 22 -35 41 -53 38 -4 -1 -11 8 -16 20 -5 13
-20 34 -34 47 -29 26 -42 80 -38 159 1 28 1 52 -1 51 -2 0 -15 -8 -29 -16z"/>
<path d="M1686 3704 c-3 -9 -6 -25 -6 -37 1 -22 1 -22 15 -3 17 22 20 56 6 56
-5 0 -12 -7 -15 -16z"/>
<path d="M2291 3668 c1 -7 5 -24 9 -38 7 -22 8 -21 9 13 1 20 -3 37 -9 37 -5
0 -10 -6 -9 -12z"/>
<path d="M1674 3608 c3 -13 6 -26 6 -30 0 -5 7 -8 16 -8 9 0 13 5 10 13 -3 6
-9 20 -12 30 -9 25 -27 21 -20 -5z"/>
<path d="M2276 3551 c-20 -37 -20 -41 -2 -41 14 0 33 56 23 67 -3 3 -13 -9
-21 -26z"/>
<path d="M1720 3533 c0 -5 9 -18 20 -28 11 -10 20 -14 20 -8 0 5 -9 18 -20 28
-11 10 -20 14 -20 8z"/>
<path d="M1804 3456 c22 -18 46 -21 46 -6 0 6 -6 10 -14 10 -8 0 -23 3 -33 6
-16 5 -16 4 1 -10z"/>
<path d="M1880 3442 c0 -12 58 -27 67 -18 9 9 2 13 -34 21 -20 4 -33 3 -33 -3z"/>
<path d="M1985 3430 c3 -5 17 -10 30 -10 13 0 27 5 30 10 4 6 -8 10 -30 10
-22 0 -34 -4 -30 -10z"/>
<path d="M2685 3358 c-148 -4 -288 -11 -310 -16 -22 -5 -33 -10 -24 -11 20 -1
23 -71 2 -71 -18 0 -16 -10 4 -32 14 -16 15 -21 3 -28 -10 -6 -4 -10 21 -15
l35 -7 -10 -49 c-8 -39 -7 -52 2 -58 27 -17 -249 -21 -1310 -21 l-1098 0 0
-552 0 -553 2560 -4 2560 -4 0 710 0 711 -657 6 c-718 7 -1357 5 -1778 -6z
m-10 -82 c16 -12 17 -16 6 -30 -10 -12 -18 -13 -33 -5 -11 6 -26 8 -34 5 -28
-11 -14 -34 29 -48 38 -12 42 -16 45 -48 4 -53 -16 -73 -73 -72 -58 0 -88 23
-64 47 12 13 21 14 43 5 17 -6 34 -7 44 -1 12 7 5 14 -36 35 -29 15 -52 30
-52 35 0 5 -3 16 -6 25 -3 9 5 26 20 41 28 28 80 34 111 11z m2028 3 c44 -12
67 -43 69 -91 1 -42 -29 -97 -57 -103 -67 -14 -104 -8 -136 24 -52 52 -35 143
31 167 44 16 47 16 93 3z m-1825 -102 l3 -97 -26 0 c-25 0 -25 0 -25 93 0 97
4 110 30 105 12 -3 16 -22 18 -101z m239 43 c10 -33 22 -58 28 -57 5 2 17 28
26 58 16 53 17 54 55 54 l39 0 0 -95 c0 -91 -1 -95 -22 -98 -22 -3 -23 0 -23
57 0 34 -4 61 -9 61 -6 0 -18 -27 -27 -60 -14 -50 -20 -60 -38 -60 -18 0 -26
10 -40 55 -24 76 -36 78 -36 6 0 -58 -1 -61 -25 -61 -25 0 -25 0 -25 93 0 52
3 97 7 100 3 4 21 7 40 7 31 0 33 -2 50 -60z m343 -14 c6 -76 24 -101 58 -80
12 8 18 29 22 80 4 61 7 69 25 69 18 0 20 -8 23 -72 3 -65 0 -76 -20 -97 -23
-25 -39 -29 -95 -27 -44 1 -63 39 -63 124 0 68 5 79 30 75 11 -2 16 -21 20
-72z m328 -3 l3 -72 37 -3 c30 -2 38 -7 40 -26 3 -22 1 -23 -65 -20 l-68 3 -3
84 c-3 100 0 113 30 109 21 -3 23 -9 26 -75z m328 47 c7 -14 23 -47 37 -75 42
-85 43 -95 8 -95 -21 0 -32 6 -36 20 -5 15 -15 20 -45 20 -30 0 -40 -5 -45
-20 -4 -14 -15 -20 -36 -20 -16 0 -29 1 -29 3 0 10 44 113 50 117 4 3 15 22
24 43 12 31 20 38 38 35 12 -2 28 -14 34 -28z m322 8 c3 -14 -3 -18 -27 -18
l-31 0 0 -80 c0 -78 -1 -80 -25 -80 -23 0 -24 3 -27 77 -3 69 -5 78 -23 81
-27 5 -39 18 -30 32 4 7 34 10 83 8 64 -3 77 -6 80 -20z m617 2 c19 -16 19
-64 0 -80 -19 -16 -19 -34 -1 -49 8 -6 16 -21 19 -31 4 -17 0 -20 -26 -20 -26
0 -35 6 -47 32 -22 46 -40 48 -40 4 0 -32 -3 -36 -25 -36 -25 0 -25 0 -25 93
0 52 3 97 8 101 10 12 120 0 137 -14z m-4325 -662 c0 -152 4 -278 10 -298 24
-81 123 -109 192 -56 22 16 38 38 42 58 3 17 6 149 6 294 l0 264 65 0 65 0 0
-293 c0 -160 -4 -307 -9 -324 -14 -47 -74 -108 -124 -123 -23 -8 -46 -17 -52
-22 -12 -11 -168 -10 -180 1 -6 5 -26 14 -47 20 -43 14 -82 51 -111 106 -20
38 -21 58 -25 338 l-4 297 86 0 86 0 0 -262z m1610 202 l0 -60 -95 0 -95 0 0
-315 0 -315 -90 0 -90 0 0 315 0 315 -95 0 -95 0 0 60 0 60 280 0 280 0 0 -60z
m830 -315 l0 -375 -85 0 -85 0 0 375 0 375 85 0 85 0 0 -375z m912 58 l3 -318
153 -3 152 -3 0 -54 0 -55 -235 0 -235 0 0 375 0 375 80 0 80 0 2 -317z"/>
<path d="M4626 3234 c-59 -59 -1 -138 73 -100 39 21 41 55 6 91 -30 29 -57 32
-79 9z"/>
<path d="M4067 3203 c-15 -15 -6 -43 13 -43 11 0 20 6 20 14 0 17 -24 38 -33
29z"/>
<path d="M4967 3233 c-22 -22 16 -50 44 -33 10 7 10 11 0 24 -14 17 -33 21
-44 9z"/>
<path d="M0 1600 c0 -74 3 -90 15 -90 9 0 18 -6 21 -13 5 -15 -20 -200 -31
-230 -12 -30 31 -20 68 17 76 76 110 172 88 252 -17 64 -105 154 -151 154 -6
0 -10 -34 -10 -90z"/>
<path d="M2078 1680 c-75 -9 -153 -49 -170 -86 -6 -13 -15 -24 -19 -24 -5 0
-13 -18 -19 -39 -10 -38 -13 -40 -58 -46 -26 -3 -74 -10 -107 -16 -47 -7 -289
-29 -326 -29 -4 0 -11 9 -14 21 -10 30 -83 98 -124 115 -46 19 -133 22 -189 6
-48 -15 -115 -74 -133 -118 -17 -43 -13 -162 6 -209 22 -52 60 -96 115 -136
25 -17 46 -33 48 -34 1 -1 11 -47 22 -101 10 -54 24 -113 30 -130 15 -44 49
-217 44 -226 -2 -4 -26 0 -52 7 -100 31 -108 25 -152 -110 -12 -38 -26 -74
-30 -80 -3 -5 -15 -47 -25 -92 -11 -49 -26 -90 -37 -99 -10 -10 -18 -24 -18
-31 0 -8 -16 -48 -36 -89 -19 -41 -39 -88 -44 -104 l-9 -30 230 0 c200 0 229
2 229 15 0 9 11 26 24 38 12 12 31 46 40 74 10 29 21 55 26 58 4 3 16 30 26
60 9 31 21 52 25 48 7 -7 34 -174 41 -258 l3 -30 376 -3 376 -2 6 91 c4 51 7
132 7 181 0 97 8 108 46 61 21 -26 22 -27 63 -13 23 7 46 19 52 27 6 7 18 13
25 13 8 0 57 20 108 45 52 25 98 45 103 45 4 0 27 18 50 39 30 28 44 50 48 78
7 37 15 74 34 151 6 20 12 55 14 77 3 22 8 58 12 80 5 33 2 48 -19 85 -14 25
-40 73 -57 108 -17 34 -40 67 -50 73 -14 7 -59 4 -160 -11 -77 -12 -147 -24
-155 -27 -11 -4 -14 8 -14 65 0 59 3 73 24 93 71 73 89 210 41 319 -10 21 -36
49 -64 68 -54 37 -107 45 -213 32z m-218 -529 c7 -15 6 -27 -8 -50 -21 -37
-39 -39 -54 -6 -23 50 36 104 62 56z m-250 -47 c5 -13 7 -30 4 -38 -5 -12 -11
-11 -40 6 -37 22 -43 42 -17 56 23 13 43 4 53 -24z m306 -391 c12 -66 -22
-203 -52 -203 -7 0 -21 -3 -31 -6 -16 -6 -16 -5 -2 7 27 24 49 62 49 87 0 13
-13 37 -29 53 -26 25 -33 28 -56 19 -14 -5 -39 -10 -53 -10 -39 0 -68 -24 -76
-60 -7 -36 16 -90 39 -90 7 0 17 -4 20 -10 4 -6 -6 -10 -22 -10 -23 0 -33 9
-57 52 -29 53 -45 143 -33 190 6 21 11 23 83 24 42 1 79 6 83 11 3 6 19 11 35
11 17 0 33 7 38 16 9 15 13 13 34 -15 13 -18 27 -48 30 -66z m-893 -193 c-3
-11 -7 -20 -9 -20 -2 0 -4 9 -4 20 0 11 4 20 9 20 5 0 7 -9 4 -20z m197 -46
c0 -8 -5 -14 -11 -14 -5 0 -7 -4 -4 -10 3 -5 2 -10 -4 -10 -5 0 -13 5 -16 10
-3 6 -1 10 5 10 8 0 10 9 5 27 -5 23 -4 25 9 14 9 -8 16 -20 16 -27z m954 30
c29 -11 18 -34 -16 -35 -18 0 -40 -2 -48 -3 -8 -2 -67 -6 -130 -10 -63 -4
-150 -9 -192 -13 -50 -3 -78 -2 -78 5 0 5 17 10 38 10 20 0 57 6 82 12 25 6
72 13 105 16 110 11 210 21 217 23 3 0 13 -2 22 -5z m-1144 -35 c0 -5 -7 -9
-15 -9 -15 0 -20 12 -9 23 8 8 24 -1 24 -14z m70 -20 c0 -5 -7 -9 -15 -9 -15
0 -20 12 -9 23 8 8 24 -1 24 -14z m90 -19 c16 0 32 -5 36 -11 6 -10 70 -6 117
7 13 4 17 -1 17 -25 0 -20 -5 -31 -14 -31 -23 0 -159 37 -198 54 -43 18 -52
31 -12 16 14 -6 38 -10 54 -10z"/>
<path d="M4330 1575 c0 -8 5 -15 10 -15 6 0 10 7 10 15 0 8 -4 15 -10 15 -5 0
-10 -7 -10 -15z"/>
<path d="M3902 1201 c-12 -7 -12 -12 0 -30 11 -19 11 -24 -4 -35 -29 -22 -23
-55 15 -85 29 -23 57 11 57 68 0 68 -31 106 -68 82z"/>
<path d="M4227 1204 c-3 -4 -3 -19 0 -35 4 -21 1 -30 -11 -35 -20 -8 -21 -38
0 -69 19 -30 35 -31 57 -7 24 26 23 113 -1 135 -19 18 -34 21 -45 11z"/>
<path d="M4016 765 c-75 -64 -5 -169 99 -149 77 14 109 85 64 142 -18 24 -28
27 -80 27 -45 0 -66 -5 -83 -20z"/>
<path d="M4663 710 c-16 -6 -23 -18 -23 -35 0 -34 11 -31 37 10 23 37 22 39
-14 25z"/>
<path d="M4514 618 c-3 -4 0 -8 5 -8 20 0 12 -66 -11 -95 l-22 -28 27 17 c14
10 29 26 32 37 3 10 19 28 36 39 43 31 37 47 -16 47 -25 0 -48 -4 -51 -9z"/>
<path d="M3654 609 c-3 -6 -1 -16 5 -22 8 -8 11 -5 11 11 0 24 -5 28 -16 11z"/>
<path d="M32 489 l-32 -10 0 -239 0 -240 180 0 180 0 -6 28 c-7 27 -76 184
-95 212 -5 8 -14 26 -20 40 -5 14 -23 52 -39 85 -16 33 -34 72 -39 88 -16 42
-62 55 -129 36z"/>
<path d="M4466 462 c-3 -5 1 -15 9 -22 16 -14 20 -3 6 19 -5 8 -11 9 -15 3z"/>
<path d="M3756 422 c-3 -10 -18 -25 -33 -35 -16 -9 -44 -30 -63 -47 -32 -28
-33 -30 -11 -30 13 0 40 15 59 33 19 17 45 42 58 54 13 12 24 27 24 33 0 17
-28 11 -34 -8z"/>
<path d="M4533 304 c-24 -25 -43 -50 -43 -57 1 -7 18 7 38 31 21 23 45 42 54
42 11 0 15 5 12 15 -9 22 -14 19 -61 -31z"/>
<path d="M3111 307 c-1 -39 25 -92 55 -112 l24 -15 -21 37 c-12 21 -24 40 -28
43 -4 3 -12 21 -18 40 -11 34 -11 34 -12 7z"/>
<path d="M5045 309 c-4 -6 -5 -12 -2 -15 2 -3 7 2 10 11 7 17 1 20 -8 4z"/>
<path d="M4494 219 c-9 -15 202 -221 222 -217 10 2 -24 41 -100 115 -68 66
-118 108 -122 102z"/>
<path d="M3666 144 c-36 -31 -66 -60 -66 -65 0 -5 -5 -9 -11 -9 -6 0 -29 -16
-50 -35 -28 -25 -34 -35 -21 -35 9 0 42 24 72 53 31 28 72 63 92 77 30 20 68
70 54 70 -3 0 -34 -25 -70 -56z"/>
<path d="M4425 180 c-10 -11 -16 -22 -14 -24 2 -2 12 7 22 20 22 29 17 32 -8
4z"/>
<path d="M3200 161 c0 -5 5 -13 10 -16 6 -3 10 -2 10 4 0 5 -4 13 -10 16 -5 3
-10 2 -10 -4z"/>
</g>
</svg>
